<svg xmlns="http://www.w3.org/2000/svg" width="105" height="104" viewBox="0 0 105 104" fill="none">
    <g opacity="0.12">
        <path d="M79.5651 52.7623C89.2841 52.7623 95.8337 59.6453 95.8337 69.8436C95.8337 79.0208 88.306 86.6663 78.1103 86.6663C66.9427 86.6663 58.6908 77.4891 58.6908 63.4712C58.6908 31.6094 81.5089 18.8646 95.8337 17.333V31.3509C86.1208 33.1347 75.2008 43.0746 74.7118 54.0419C75.2008 53.7897 77.1384 52.7623 79.5651 52.7623ZM30.0475 52.7623C39.7541 52.7623 46.3098 59.6453 46.3098 69.8436C46.3098 79.0208 38.7822 86.6663 28.5865 86.6663C17.4189 86.6663 9.16699 77.4891 9.16699 63.4712C9.16699 31.6094 31.9851 18.8646 46.3098 17.333V31.3509C36.597 33.1347 25.677 43.0746 25.1879 54.0419C25.677 53.7897 27.6146 52.7623 30.0475 52.7623Z" fill="#050505"/>
    </g>
</svg>